<svg xmlns="http://www.w3.org/2000/svg" width="26" height="26" viewBox="0 0 26 26">
    <path d="M 4.875 0 C 2.182 0 0 2.182 0 4.875 L 0 21.125 C 0 23.818 2.182 26 4.875 26 L 21.125 26 C 23.818 26 26 23.818 26 21.125 L 26 4.875 C 26 2.182 23.818 0 21.125 0 L 4.875 0 z M 4.875 2 L 21.125 2 C 22.711 2 24 3.29 24 4.875 L 24 9 L 19.90625 9 C 18.519967 6.6143528 15.952116 5 13 5 C 10.047884 5 7.4800333 6.6143528 6.09375 9 L 2 9 L 2 4.875 C 2 3.29 3.29 2 4.875 2 z M 20 3 C 19.449 3 19 3.449 19 4 L 19 6 C 19 6.551 19.449 7 20 7 L 22 7 C 22.551 7 23 6.551 23 6 L 23 4 C 23 3.449 22.551 3 22 3 L 20 3 z M 13 7 C 14.775865 7 16.370046 7.7734414 17.46875 9 C 17.478546 9.0109364 17.490283 9.0202415 17.5 9.03125 C 17.545004 9.0821888 17.581702 9.1350727 17.625 9.1875 C 17.74729 9.3356616 17.860911 9.4966504 17.96875 9.65625 C 18.011607 9.7198641 18.053288 9.7784606 18.09375 9.84375 C 18.253511 10.101541 18.411378 10.374644 18.53125 10.65625 C 18.553013 10.707376 18.573381 10.76066 18.59375 10.8125 C 18.644684 10.942897 18.676862 11.0841 18.71875 11.21875 C 18.753878 11.330797 18.783913 11.447716 18.8125 11.5625 C 18.830929 11.637527 18.859424 11.705143 18.875 11.78125 C 18.881735 11.813526 18.90004 11.842533 18.90625 11.875 C 18.93715 12.039561 18.951584 12.205994 18.96875 12.375 C 18.990652 12.582545 19 12.786511 19 13 C 19 14.24275 18.615906 15.386152 17.96875 16.34375 C 16.998016 17.780146 15.43959 18.784413 13.625 18.96875 C 13.423379 18.989232 13.207 19 13 19 C 11.136437 19 9.4756082 18.145955 8.375 16.8125 C 8.2527102 16.664338 8.1390889 16.50335 8.03125 16.34375 C 7.3842168 15.386152 7 14.24275 7 13 C 7 12.813536 7.014604 12.619621 7.03125 12.4375 C 7.033207 12.416908 7.0290839 12.395529 7.03125 12.375 C 7.0366768 12.321572 7.0556805 12.271754 7.0625 12.21875 C 7.081856 12.072519 7.0952396 11.923911 7.125 11.78125 C 7.1561527 11.629037 7.207557 11.491524 7.25 11.34375 C 7.2618499 11.302882 7.2685552 11.259252 7.28125 11.21875 C 7.2968361 11.168648 7.2956453 11.11203 7.3125 11.0625 C 7.3484497 10.957609 7.3959713 10.852177 7.4375 10.75 C 7.4496794 10.719844 7.456097 10.68616 7.46875 10.65625 C 7.5886222 10.3746 7.7464894 10.101501 7.90625 9.84375 C 7.9467117 9.7784707 7.9883934 9.7198464 8.03125 9.65625 C 8.1765153 9.4412599 8.3288294 9.2251686 8.5 9.03125 C 8.5098381 9.0201245 8.5213317 9.0110527 8.53125 9 C 9.6299544 7.7734414 11.224135 7 13 7 z M 13 9.1875 C 12.274 9.1875 11.60825 9.4 11.03125 9.75 C 11.21125 9.694 11.39675 9.65625 11.59375 9.65625 C 12.66175 9.65625 13.53125 10.52475 13.53125 11.59375 C 13.53125 12.65975 12.66175 13.53125 11.59375 13.53125 C 10.52575 13.53125 9.65625 12.66075 9.65625 11.59375 C 9.65625 11.39475 9.695 11.21025 9.75 11.03125 C 9.398 11.60825 9.1875 12.274 9.1875 13 C 9.1875 15.107 10.892 16.8125 13 16.8125 C 15.105 16.8125 16.8125 15.108 16.8125 13 C 16.8125 10.892 15.105 9.1875 13 9.1875 z"/>
</svg>