<?xml version="1.0" encoding="utf-8"?>
<!-- Generator: Adobe Illustrator 15.0.0, SVG Export Plug-In . SVG Version: 6.00 Build 0)  -->
<!DOCTYPE svg PUBLIC "-//W3C//DTD SVG 1.1//EN" "http://www.w3.org/Graphics/SVG/1.1/DTD/svg11.dtd">
<svg version="1.1" id="Layer_1" xmlns="http://www.w3.org/2000/svg" xmlns:xlink="http://www.w3.org/1999/xlink" x="0px" y="0px"
	 width="864px" height="864px" viewBox="0 0 864 864" enable-background="new 0 0 864 864" xml:space="preserve">
<g>
	<path d="M742.305,325.513c-0.586,16.465-1.551,31.064-3.068,41.834l-1.297,9.887c-4.367,35.334-13.445,108.865-54.332,197.219
		C632.994,683.649,550.922,778.298,439.684,855.72l-9.443,6.564l-9.441-6.564c-111.24-77.422-193.28-172.07-243.895-281.299
		c-40.917-88.322-50.012-161.854-54.425-197.188l-1.233-9.887c-1.646-11.703-2.626-27.963-3.195-46.215l30.637,23.613
		c0.506,7.039,1.123,13.238,1.883,18.568l1.328,10.266c4.16,33.848,12.875,104.264,51.863,188.441
		c46.834,101.1,122.389,189.436,224.471,262.588l2.008,1.439l1.979-1.439c102.174-73.152,177.652-161.488,224.502-262.588
		c38.955-84.146,47.719-154.594,51.895-188.441l1.312-10.266c0.568-4.223,1.09-8.904,1.518-14.123L742.305,325.513z
		 M263.723,142.513c-58.253,8.905-95.09,20.72-112.789,27.474l-2.088,0.807l-0.095,2.31c-0.332,7.022-0.664,24.643-1.013,44.698
		h-29.751c0.648-31.27,1.534-54.853,1.646-56.719l0.506-9.743l8.794-4.239c2.784-1.345,51.23-24.199,153.485-37.122L263.723,142.513
		z M580.848,110.342c100.355,12.97,147.949,35.413,150.701,36.758l8.793,4.239l0.475,9.743c0.111,1.866,1.029,25.417,1.678,56.655
		l-29.736,0.063c-0.316-20.104-0.727-37.676-0.996-44.698l-0.078-2.31l-2.137-0.807c-17.398-6.596-53.27-18.189-109.83-26.999
		L580.848,110.342z"/>
	<polygon points="698.111,327.204 670.117,327.157 670.117,314.694 712.68,314.614 750.561,285.448 670.117,285.56 670.117,273.538
		764.605,273.413 802.74,244.104 62.028,244.263 99.498,273.317 193.687,273.507 193.687,285.671 114.539,285.718 151.566,314.505
		193.687,314.772 193.687,327.284 167.811,327.331 204.236,355.802 246.91,355.802 246.91,302.056 398.939,302.056 398.939,523.522
		463.123,523.522 463.123,301.772 616.434,301.772 616.434,356.069 660.531,356.069 	"/>
	<polygon points="383.551,360.483 325.25,360.483 282.117,398.585 282.117,559.409 325.25,598.065 579.186,598.065 579.186,518.999
		515.588,518.999 515.588,540.224 346.713,540.224 346.713,417.755 383.551,417.755 	"/>
	<polygon points="478.971,359.978 579.455,359.978 579.455,438.745 515.35,438.745 515.35,418.056 479.225,418.056 	"/>
	<polygon points="399.066,613.915 463.219,613.915 463.219,673.671 509.451,673.671 509.451,731.464 352.486,731.464
		352.486,674.081 399.066,674.081 	"/>
	<polygon points="334.219,220.268 526.326,220.268 491.988,161.524 510.051,161.524 476.172,102.718 488.352,102.718 430.051,1.491
		371.719,102.307 383.471,102.307 350.035,161.524 367.67,161.524 	"/>
	<polygon points="351.395,128.499 319.303,72.461 279.508,140.283 287.654,140.283 265.494,179.587 276.771,179.587
		254.645,219.366 316.139,219.366 340.529,177.325 323.367,177.325 	"/>
	<polygon points="508.723,128.499 540.783,72.461 580.562,140.283 572.449,140.283 594.576,179.587 583.252,179.587
		605.426,219.366 543.932,219.366 519.541,177.325 536.734,177.325 	"/>
</g>
</svg>
